<svg xmlns="http://www.w3.org/2000/svg" width="1060" height="622" viewBox="0 0 1060 622">
<rect width="100%" height="100%" fill="#ffffff"/>
<text x="24" y="32" font-family="sans-serif" font-size="20" font-weight="700" fill="#222222">Bray-Curtis Distance Matrix Across Scenarios</text>
<text x="24" y="54" font-family="sans-serif" font-size="12" fill="#555555">Log-scaled best elapsed time in seconds. Zero values reflect timer resolution and are drawn at half the smallest positive time.</text>
<line x1="291.42796590234013" y1="64" x2="291.42796590234013" y2="574" stroke="#eeeeee" stroke-width="1"/>
<text x="291.42796590234013" y="592" text-anchor="middle" font-family="sans-serif" font-size="11" fill="#666666">1e-4</text>
<line x1="479.03613298571884" y1="64" x2="479.03613298571884" y2="574" stroke="#eeeeee" stroke-width="1"/>
<text x="479.03613298571884" y="592" text-anchor="middle" font-family="sans-serif" font-size="11" fill="#666666">1e-3</text>
<line x1="666.6443000690974" y1="64" x2="666.6443000690974" y2="574" stroke="#eeeeee" stroke-width="1"/>
<text x="666.6443000690974" y="592" text-anchor="middle" font-family="sans-serif" font-size="11" fill="#666666">1e-2</text>
<line x1="854.2524671524761" y1="64" x2="854.2524671524761" y2="574" stroke="#eeeeee" stroke-width="1"/>
<text x="854.2524671524761" y="592" text-anchor="middle" font-family="sans-serif" font-size="11" fill="#666666">1e-1</text>
<text x="258" y="87" text-anchor="end" font-family="sans-serif" font-size="12" fill="#333333">small / Julia (safe)</text>
<rect x="270" y="75.0" width="59.7861658292717" height="18" fill="#4063d8" rx="2"/>
<text x="337.7861658292717" y="87" font-family="sans-serif" font-size="11" fill="#333333">0.00016012499</text>
<text x="258" y="111" text-anchor="end" font-family="sans-serif" font-size="12" fill="#333333">small / Julia (pre)</text>
<rect x="270" y="99.0" width="56.47568572363695" height="18" fill="#8fa8f4" rx="2"/>
<text x="334.47568572363696" y="111" font-family="sans-serif" font-size="11" fill="#333333">0.00015374939</text>
<text x="258" y="135" text-anchor="end" font-family="sans-serif" font-size="12" fill="#333333">small / Python</text>
<rect x="270" y="123.0" width="88.76185686318637" height="18" fill="#389826" rx="2"/>
<text x="366.7618568631864" y="135" font-family="sans-serif" font-size="11" fill="#333333">0.00022851096000522375</text>
<text x="258" y="159" text-anchor="end" font-family="sans-serif" font-size="12" fill="#333333">small / R</text>
<rect x="270" y="147.0" width="121.13775137209673" height="18" fill="#9558b2" rx="2"/>
<text x="399.1377513720967" y="159" font-family="sans-serif" font-size="11" fill="#333333">0.00034</text>
<text x="258" y="183" text-anchor="end" font-family="sans-serif" font-size="12" fill="#333333">default / Julia (safe)</text>
<rect x="270" y="171.0" width="340.2367610642954" height="18" fill="#4063d8" rx="2"/>
<text x="618.2367610642955" y="183" font-family="sans-serif" font-size="11" fill="#333333">0.0050041836999999995</text>
<text x="258" y="207" text-anchor="end" font-family="sans-serif" font-size="12" fill="#333333">default / Julia (pre)</text>
<rect x="270" y="195.0" width="339.2244168950342" height="18" fill="#8fa8f4" rx="2"/>
<text x="617.2244168950342" y="207" font-family="sans-serif" font-size="11" fill="#333333">0.004942392</text>
<text x="258" y="231" text-anchor="end" font-family="sans-serif" font-size="12" fill="#333333">default / Python</text>
<rect x="270" y="219.0" width="355.79923205184906" height="18" fill="#389826" rx="2"/>
<text x="633.799232051849" y="231" font-family="sans-serif" font-size="11" fill="#333333">0.006057385797612369</text>
<text x="258" y="255" text-anchor="end" font-family="sans-serif" font-size="12" fill="#333333">default / R</text>
<rect x="270" y="243.0" width="379.97674188549996" height="18" fill="#9558b2" rx="2"/>
<text x="657.9767418854999" y="255" font-family="sans-serif" font-size="11" fill="#333333">0.00814999999999999</text>
<text x="258" y="279" text-anchor="end" font-family="sans-serif" font-size="12" fill="#333333">many_sites / Julia (safe)</text>
<rect x="270" y="267.0" width="473.9812231095702" height="18" fill="#4063d8" rx="2"/>
<text x="751.9812231095702" y="279" font-family="sans-serif" font-size="11" fill="#333333">0.02583603</text>
<text x="258" y="303" text-anchor="end" font-family="sans-serif" font-size="12" fill="#333333">many_sites / Julia (pre)</text>
<rect x="270" y="291.0" width="474.07040299769227" height="18" fill="#8fa8f4" rx="2"/>
<text x="752.0704029976923" y="303" font-family="sans-serif" font-size="11" fill="#333333">0.025864323999999998</text>
<text x="258" y="327" text-anchor="end" font-family="sans-serif" font-size="12" fill="#333333">many_sites / Python</text>
<rect x="270" y="315.0" width="489.2579597324715" height="18" fill="#389826" rx="2"/>
<text x="767.2579597324715" y="327" font-family="sans-serif" font-size="11" fill="#333333">0.03116411032776038</text>
<text x="258" y="351" text-anchor="end" font-family="sans-serif" font-size="12" fill="#333333">many_sites / R</text>
<rect x="270" y="339.0" width="530.9723749939927" height="18" fill="#9558b2" rx="2"/>
<text x="808.9723749939927" y="351" font-family="sans-serif" font-size="11" fill="#333333">0.052</text>
<text x="258" y="375" text-anchor="end" font-family="sans-serif" font-size="12" fill="#333333">wide / Julia (safe)</text>
<rect x="270" y="363.0" width="442.92465995438795" height="18" fill="#4063d8" rx="2"/>
<text x="720.924659954388" y="375" font-family="sans-serif" font-size="11" fill="#333333">0.017647625333333333</text>
<text x="258" y="399" text-anchor="end" font-family="sans-serif" font-size="12" fill="#333333">wide / Julia (pre)</text>
<rect x="270" y="387.0" width="441.34970614236477" height="18" fill="#8fa8f4" rx="2"/>
<text x="719.3497061423648" y="399" font-family="sans-serif" font-size="11" fill="#333333">0.017309772666666667</text>
<text x="258" y="423" text-anchor="end" font-family="sans-serif" font-size="12" fill="#333333">wide / Python</text>
<rect x="270" y="411.0" width="439.80130188233863" height="18" fill="#389826" rx="2"/>
<text x="717.8013018823386" y="423" font-family="sans-serif" font-size="11" fill="#333333">0.0169839213291804</text>
<text x="258" y="447" text-anchor="end" font-family="sans-serif" font-size="12" fill="#333333">wide / R</text>
<rect x="270" y="435.0" width="475.53462931600393" height="18" fill="#9558b2" rx="2"/>
<text x="753.5346293160039" y="447" font-family="sans-serif" font-size="11" fill="#333333">0.0263333333333333</text>
<text x="258" y="471" text-anchor="end" font-family="sans-serif" font-size="12" fill="#333333">large / Julia (safe)</text>
<rect x="270" y="459.0" width="558.7695399599247" height="18" fill="#4063d8" rx="2"/>
<text x="836.7695399599247" y="471" font-family="sans-serif" font-size="11" fill="#333333">0.073142435</text>
<text x="258" y="495" text-anchor="end" font-family="sans-serif" font-size="12" fill="#333333">large / Julia (pre)</text>
<rect x="270" y="483.0" width="556.9425083231765" height="18" fill="#8fa8f4" rx="2"/>
<text x="834.9425083231765" y="495" font-family="sans-serif" font-size="11" fill="#333333">0.071520553</text>
<text x="258" y="519" text-anchor="end" font-family="sans-serif" font-size="12" fill="#333333">large / Python</text>
<rect x="270" y="507.0" width="569.7451047668895" height="18" fill="#389826" rx="2"/>
<text x="847.7451047668895" y="519" font-family="sans-serif" font-size="11" fill="#333333">0.08368969988077879</text>
<text x="258" y="543" text-anchor="end" font-family="sans-serif" font-size="12" fill="#333333">large / R</text>
<rect x="270" y="531.0" width="605.0" height="18" fill="#9558b2" rx="2"/>
<text x="883.0" y="543" font-family="sans-serif" font-size="11" fill="#333333">0.129</text>
<rect x="900" y="72" width="12" height="12" fill="#4063d8" rx="2"/>
<text x="918" y="83" font-family="sans-serif" font-size="12" fill="#333333">Julia (safe)</text>
<rect x="900" y="94" width="12" height="12" fill="#8fa8f4" rx="2"/>
<text x="918" y="105" font-family="sans-serif" font-size="12" fill="#333333">Julia (pre)</text>
<rect x="900" y="116" width="12" height="12" fill="#389826" rx="2"/>
<text x="918" y="127" font-family="sans-serif" font-size="12" fill="#333333">Python</text>
<rect x="900" y="138" width="12" height="12" fill="#9558b2" rx="2"/>
<text x="918" y="149" font-family="sans-serif" font-size="12" fill="#333333">R</text>
<line x1="270" y1="574" x2="875" y2="574" stroke="#bbbbbb" stroke-width="1"/>
</svg>
