<svg xmlns="http://www.w3.org/2000/svg" width="1060" height="622" viewBox="0 0 1060 622">
<rect width="100%" height="100%" fill="#ffffff"/>
<text x="24" y="32" font-family="sans-serif" font-size="20" font-weight="700" fill="#222222">Jaccard Distance Matrix Across Scenarios</text>
<text x="24" y="54" font-family="sans-serif" font-size="12" fill="#555555">Log-scaled best elapsed time in seconds. Zero values reflect timer resolution and are drawn at half the smallest positive time.</text>
<line x1="285.7547676924842" y1="64" x2="285.7547676924842" y2="574" stroke="#eeeeee" stroke-width="1"/>
<text x="285.7547676924842" y="592" text-anchor="middle" font-family="sans-serif" font-size="11" fill="#666666">1e-5</text>
<line x1="422.9035865769987" y1="64" x2="422.9035865769987" y2="574" stroke="#eeeeee" stroke-width="1"/>
<text x="422.9035865769987" y="592" text-anchor="middle" font-family="sans-serif" font-size="11" fill="#666666">1e-4</text>
<line x1="560.0524054615131" y1="64" x2="560.0524054615131" y2="574" stroke="#eeeeee" stroke-width="1"/>
<text x="560.0524054615131" y="592" text-anchor="middle" font-family="sans-serif" font-size="11" fill="#666666">1e-3</text>
<line x1="697.2012243460275" y1="64" x2="697.2012243460275" y2="574" stroke="#eeeeee" stroke-width="1"/>
<text x="697.2012243460275" y="592" text-anchor="middle" font-family="sans-serif" font-size="11" fill="#666666">1e-2</text>
<line x1="834.350043230542" y1="64" x2="834.350043230542" y2="574" stroke="#eeeeee" stroke-width="1"/>
<text x="834.350043230542" y="592" text-anchor="middle" font-family="sans-serif" font-size="11" fill="#666666">1e-1</text>
<text x="258" y="87" text-anchor="end" font-family="sans-serif" font-size="12" fill="#333333">small / Julia (safe)</text>
<rect x="270" y="75.0" width="63.84025460570204" height="18" fill="#4063d8" rx="2"/>
<text x="341.84025460570206" y="87" font-family="sans-serif" font-size="11" fill="#333333">2.2418579999999998e-5</text>
<text x="258" y="111" text-anchor="end" font-family="sans-serif" font-size="12" fill="#333333">small / Julia (pre)</text>
<rect x="270" y="99.0" width="41.285908354125525" height="18" fill="#8fa8f4" rx="2"/>
<text x="319.2859083541255" y="111" font-family="sans-serif" font-size="11" fill="#333333">1.53517e-5</text>
<text x="258" y="135" text-anchor="end" font-family="sans-serif" font-size="12" fill="#333333">small / Python</text>
<rect x="270" y="123.0" width="252.66138151417198" height="18" fill="#389826" rx="2"/>
<text x="530.661381514172" y="135" font-family="sans-serif" font-size="11" fill="#333333">0.0005337881995365023</text>
<text x="258" y="159" text-anchor="end" font-family="sans-serif" font-size="12" fill="#333333">small / R</text>
<rect x="270" y="147.0" width="249.94600050673878" height="18" fill="#9558b2" rx="2"/>
<text x="527.9460005067388" y="159" font-family="sans-serif" font-size="11" fill="#333333">0.000510000000000002</text>
<text x="258" y="183" text-anchor="end" font-family="sans-serif" font-size="12" fill="#333333">default / Julia (safe)</text>
<rect x="270" y="171.0" width="224.56232204231577" height="18" fill="#4063d8" rx="2"/>
<text x="502.56232204231577" y="183" font-family="sans-serif" font-size="11" fill="#333333">0.00033303425000000004</text>
<text x="258" y="207" text-anchor="end" font-family="sans-serif" font-size="12" fill="#333333">default / Julia (pre)</text>
<rect x="270" y="195.0" width="208.97810216404605" height="18" fill="#8fa8f4" rx="2"/>
<text x="486.97810216404605" y="207" font-family="sans-serif" font-size="11" fill="#333333">0.0002563651</text>
<text x="258" y="231" text-anchor="end" font-family="sans-serif" font-size="12" fill="#333333">default / Python</text>
<rect x="270" y="219.0" width="449.41067109716244" height="18" fill="#389826" rx="2"/>
<text x="727.4106710971624" y="231" font-family="sans-serif" font-size="11" fill="#333333">0.014519004605244846</text>
<text x="258" y="255" text-anchor="end" font-family="sans-serif" font-size="12" fill="#333333">default / R</text>
<rect x="270" y="243.0" width="423.51574120633444" height="18" fill="#9558b2" rx="2"/>
<text x="701.5157412063345" y="255" font-family="sans-serif" font-size="11" fill="#333333">0.00939999999999999</text>
<text x="258" y="279" text-anchor="end" font-family="sans-serif" font-size="12" fill="#333333">many_sites / Julia (safe)</text>
<rect x="270" y="267.0" width="306.0246307377326" height="18" fill="#4063d8" rx="2"/>
<text x="584.0246307377327" y="279" font-family="sans-serif" font-size="11" fill="#333333">0.0013075523333333334</text>
<text x="258" y="303" text-anchor="end" font-family="sans-serif" font-size="12" fill="#333333">many_sites / Julia (pre)</text>
<rect x="270" y="291.0" width="324.2568740376871" height="18" fill="#8fa8f4" rx="2"/>
<text x="602.2568740376871" y="303" font-family="sans-serif" font-size="11" fill="#333333">0.0017758110000000002</text>
<text x="258" y="327" text-anchor="end" font-family="sans-serif" font-size="12" fill="#333333">many_sites / Python</text>
<rect x="270" y="315.0" width="545.9745949085174" height="18" fill="#389826" rx="2"/>
<text x="823.9745949085174" y="327" font-family="sans-serif" font-size="11" fill="#333333">0.0734544616813461</text>
<text x="258" y="351" text-anchor="end" font-family="sans-serif" font-size="12" fill="#333333">many_sites / R</text>
<rect x="270" y="339.0" width="530.1678190582923" height="18" fill="#9558b2" rx="2"/>
<text x="808.1678190582923" y="351" font-family="sans-serif" font-size="11" fill="#333333">0.0563333333333333</text>
<text x="258" y="375" text-anchor="end" font-family="sans-serif" font-size="12" fill="#333333">wide / Julia (safe)</text>
<rect x="270" y="363.0" width="251.50875972006338" height="18" fill="#4063d8" rx="2"/>
<text x="529.5087597200634" y="375" font-family="sans-serif" font-size="11" fill="#333333">0.000523558</text>
<text x="258" y="399" text-anchor="end" font-family="sans-serif" font-size="12" fill="#333333">wide / Julia (pre)</text>
<rect x="270" y="387.0" width="218.518030702528" height="18" fill="#8fa8f4" rx="2"/>
<text x="496.518030702528" y="399" font-family="sans-serif" font-size="11" fill="#333333">0.000300897</text>
<text x="258" y="423" text-anchor="end" font-family="sans-serif" font-size="12" fill="#333333">wide / Python</text>
<rect x="270" y="411.0" width="511.0557437975182" height="18" fill="#389826" rx="2"/>
<text x="789.0557437975182" y="423" font-family="sans-serif" font-size="11" fill="#333333">0.04087075171992183</text>
<text x="258" y="447" text-anchor="end" font-family="sans-serif" font-size="12" fill="#333333">wide / R</text>
<rect x="270" y="435.0" width="495.85824545740303" height="18" fill="#9558b2" rx="2"/>
<text x="773.858245457403" y="447" font-family="sans-serif" font-size="11" fill="#333333">0.0316666666666667</text>
<text x="258" y="471" text-anchor="end" font-family="sans-serif" font-size="12" fill="#333333">large / Julia (safe)</text>
<rect x="270" y="459.0" width="362.7273108096813" height="18" fill="#4063d8" rx="2"/>
<text x="640.7273108096813" y="471" font-family="sans-serif" font-size="11" fill="#333333">0.003387647</text>
<text x="258" y="495" text-anchor="end" font-family="sans-serif" font-size="12" fill="#333333">large / Julia (pre)</text>
<rect x="270" y="483.0" width="352.8424383652635" height="18" fill="#8fa8f4" rx="2"/>
<text x="630.8424383652634" y="495" font-family="sans-serif" font-size="11" fill="#333333">0.002869618</text>
<text x="258" y="519" text-anchor="end" font-family="sans-serif" font-size="12" fill="#333333">large / Python</text>
<rect x="270" y="507.0" width="605.0" height="18" fill="#389826" rx="2"/>
<text x="883.0" y="519" font-family="sans-serif" font-size="11" fill="#333333">0.1978759670164436</text>
<text x="258" y="543" text-anchor="end" font-family="sans-serif" font-size="12" fill="#333333">large / R</text>
<rect x="270" y="531.0" width="583.5342947171166" height="18" fill="#9558b2" rx="2"/>
<text x="861.5342947171166" y="543" font-family="sans-serif" font-size="11" fill="#333333">0.138</text>
<rect x="900" y="72" width="12" height="12" fill="#4063d8" rx="2"/>
<text x="918" y="83" font-family="sans-serif" font-size="12" fill="#333333">Julia (safe)</text>
<rect x="900" y="94" width="12" height="12" fill="#8fa8f4" rx="2"/>
<text x="918" y="105" font-family="sans-serif" font-size="12" fill="#333333">Julia (pre)</text>
<rect x="900" y="116" width="12" height="12" fill="#389826" rx="2"/>
<text x="918" y="127" font-family="sans-serif" font-size="12" fill="#333333">Python</text>
<rect x="900" y="138" width="12" height="12" fill="#9558b2" rx="2"/>
<text x="918" y="149" font-family="sans-serif" font-size="12" fill="#333333">R</text>
<line x1="270" y1="574" x2="875" y2="574" stroke="#bbbbbb" stroke-width="1"/>
</svg>
