<svg xmlns="http://www.w3.org/2000/svg" width="1040" height="498" viewBox="0 0 1040 498">
<rect width="100%" height="100%" fill="#ffffff"/>
<text x="24" y="32" font-family="sans-serif" font-size="20" font-weight="700" fill="#222222">Jaccard Distance Matrix Across Scenarios</text>
<text x="24" y="54" font-family="sans-serif" font-size="12" fill="#555555">Log-scaled best elapsed time in seconds. Zero values reflect timer resolution and are drawn at half the smallest positive time.</text>
<line x1="401.0738823012647" y1="60" x2="401.0738823012647" y2="450" stroke="#eeeeee" stroke-width="1"/>
<text x="401.0738823012647" y="468" text-anchor="middle" font-family="sans-serif" font-size="11" fill="#666666">1e-4</text>
<line x1="543.4137504883215" y1="60" x2="543.4137504883215" y2="450" stroke="#eeeeee" stroke-width="1"/>
<text x="543.4137504883215" y="468" text-anchor="middle" font-family="sans-serif" font-size="11" fill="#666666">1e-3</text>
<line x1="685.7536186753784" y1="60" x2="685.7536186753784" y2="450" stroke="#eeeeee" stroke-width="1"/>
<text x="685.7536186753784" y="468" text-anchor="middle" font-family="sans-serif" font-size="11" fill="#666666">1e-2</text>
<line x1="828.0934868624354" y1="60" x2="828.0934868624354" y2="450" stroke="#eeeeee" stroke-width="1"/>
<text x="828.0934868624354" y="468" text-anchor="middle" font-family="sans-serif" font-size="11" fill="#666666">1e-1</text>
<text x="258" y="83" text-anchor="end" font-family="sans-serif" font-size="12" fill="#333333">small / Julia</text>
<rect x="270" y="71.0" width="42.84856990316139" height="18" fill="#4063d8" rx="2"/>
<text x="320.8485699031614" y="83" font-family="sans-serif" font-size="11" fill="#333333">2.399819e-5</text>
<text x="258" y="107" text-anchor="end" font-family="sans-serif" font-size="12" fill="#333333">small / Python</text>
<rect x="270" y="95.0" width="234.5237787893399" height="18" fill="#389826" rx="2"/>
<text x="512.5237787893399" y="107" font-family="sans-serif" font-size="11" fill="#333333">0.000533065889030695</text>
<text x="258" y="131" text-anchor="end" font-family="sans-serif" font-size="12" fill="#333333">small / R</text>
<rect x="270" y="119.0" width="231.7893279001372" height="18" fill="#9558b2" rx="2"/>
<text x="509.7893279001372" y="131" font-family="sans-serif" font-size="11" fill="#333333">0.000509999999999997</text>
<text x="258" y="155" text-anchor="end" font-family="sans-serif" font-size="12" fill="#333333">default / Julia</text>
<rect x="270" y="143.0" width="202.8040357531517" height="18" fill="#4063d8" rx="2"/>
<text x="480.8040357531517" y="155" font-family="sans-serif" font-size="11" fill="#333333">0.00031910660000000003</text>
<text x="258" y="179" text-anchor="end" font-family="sans-serif" font-size="12" fill="#333333">default / Python</text>
<rect x="270" y="167.0" width="438.76034159336723" height="18" fill="#389826" rx="2"/>
<text x="716.7603415933672" y="179" font-family="sans-serif" font-size="11" fill="#333333">0.014508827542886137</text>
<text x="258" y="203" text-anchor="end" font-family="sans-serif" font-size="12" fill="#333333">default / R</text>
<rect x="270" y="191.0" width="412.25658553699253" height="18" fill="#9558b2" rx="2"/>
<text x="690.2565855369926" y="203" font-family="sans-serif" font-size="11" fill="#333333">0.00945</text>
<text x="258" y="227" text-anchor="end" font-family="sans-serif" font-size="12" fill="#333333">many_sites / Julia</text>
<rect x="270" y="215.0" width="286.74679938458996" height="18" fill="#4063d8" rx="2"/>
<text x="564.74679938459" y="227" font-family="sans-serif" font-size="11" fill="#333333">0.0012407106666666667</text>
<text x="258" y="251" text-anchor="end" font-family="sans-serif" font-size="12" fill="#333333">many_sites / Python</text>
<rect x="270" y="239.0" width="538.6224301182053" height="18" fill="#389826" rx="2"/>
<text x="816.6224301182053" y="251" font-family="sans-serif" font-size="11" fill="#333333">0.07298057603960235</text>
<text x="258" y="275" text-anchor="end" font-family="sans-serif" font-size="12" fill="#333333">many_sites / R</text>
<rect x="270" y="263.0" width="522.6174738526884" height="18" fill="#9558b2" rx="2"/>
<text x="800.6174738526884" y="275" font-family="sans-serif" font-size="11" fill="#333333">0.0563333333333333</text>
<text x="258" y="299" text-anchor="end" font-family="sans-serif" font-size="12" fill="#333333">wide / Julia</text>
<rect x="270" y="287.0" width="253.57030909677192" height="18" fill="#4063d8" rx="2"/>
<text x="531.5703090967719" y="299" font-family="sans-serif" font-size="11" fill="#333333">0.0007254226666666666</text>
<text x="258" y="323" text-anchor="end" font-family="sans-serif" font-size="12" fill="#333333">wide / Python</text>
<rect x="270" y="311.0" width="502.5702235649208" height="18" fill="#389826" rx="2"/>
<text x="780.5702235649208" y="323" font-family="sans-serif" font-size="11" fill="#333333">0.04073096734161178</text>
<text x="258" y="347" text-anchor="end" font-family="sans-serif" font-size="12" fill="#333333">wide / R</text>
<rect x="270" y="335.0" width="487.00929126952724" height="18" fill="#9558b2" rx="2"/>
<text x="765.0092912695272" y="347" font-family="sans-serif" font-size="11" fill="#333333">0.0316666666666667</text>
<text x="258" y="371" text-anchor="end" font-family="sans-serif" font-size="12" fill="#333333">large / Julia</text>
<rect x="270" y="359.0" width="350.50755740135486" height="18" fill="#4063d8" rx="2"/>
<text x="628.5075574013549" y="371" font-family="sans-serif" font-size="11" fill="#333333">0.003480309</text>
<text x="258" y="395" text-anchor="end" font-family="sans-serif" font-size="12" fill="#333333">large / Python</text>
<rect x="270" y="383.0" width="600.0" height="18" fill="#389826" rx="2"/>
<text x="878.0" y="395" font-family="sans-serif" font-size="11" fill="#333333">0.19697523792274296</text>
<text x="258" y="419" text-anchor="end" font-family="sans-serif" font-size="12" fill="#333333">large / R</text>
<rect x="270" y="407.0" width="578.0038575829134" height="18" fill="#9558b2" rx="2"/>
<text x="856.0038575829134" y="419" font-family="sans-serif" font-size="11" fill="#333333">0.138</text>
<rect x="895" y="68" width="12" height="12" fill="#4063d8" rx="2"/>
<text x="913" y="79" font-family="sans-serif" font-size="12" fill="#333333">Julia</text>
<rect x="895" y="90" width="12" height="12" fill="#389826" rx="2"/>
<text x="913" y="101" font-family="sans-serif" font-size="12" fill="#333333">Python</text>
<rect x="895" y="112" width="12" height="12" fill="#9558b2" rx="2"/>
<text x="913" y="123" font-family="sans-serif" font-size="12" fill="#333333">R</text>
<line x1="270" y1="450" x2="870" y2="450" stroke="#bbbbbb" stroke-width="1"/>
</svg>
