<svg xmlns="http://www.w3.org/2000/svg" width="1060" height="622" viewBox="0 0 1060 622">
<rect width="100%" height="100%" fill="#ffffff"/>
<text x="24" y="32" font-family="sans-serif" font-size="20" font-weight="700" fill="#222222">Richness Across Scenarios</text>
<text x="24" y="54" font-family="sans-serif" font-size="12" fill="#555555">Log-scaled best elapsed time in seconds. Zero values reflect timer resolution and are drawn at half the smallest positive time.</text>
<line x1="322.6401522939699" y1="64" x2="322.6401522939699" y2="574" stroke="#eeeeee" stroke-width="1"/>
<text x="322.6401522939699" y="592" text-anchor="middle" font-family="sans-serif" font-size="11" fill="#666666">1e-6</text>
<line x1="489.9696974455057" y1="64" x2="489.9696974455057" y2="574" stroke="#eeeeee" stroke-width="1"/>
<text x="489.9696974455057" y="592" text-anchor="middle" font-family="sans-serif" font-size="11" fill="#666666">1e-5</text>
<line x1="657.2992425970415" y1="64" x2="657.2992425970415" y2="574" stroke="#eeeeee" stroke-width="1"/>
<text x="657.2992425970415" y="592" text-anchor="middle" font-family="sans-serif" font-size="11" fill="#666666">1e-4</text>
<line x1="824.6287877485772" y1="64" x2="824.6287877485772" y2="574" stroke="#eeeeee" stroke-width="1"/>
<text x="824.6287877485772" y="592" text-anchor="middle" font-family="sans-serif" font-size="11" fill="#666666">1e-3</text>
<text x="258" y="87" text-anchor="end" font-family="sans-serif" font-size="12" fill="#333333">small / Julia (safe)</text>
<rect x="270" y="75.0" width="186.72408913030375" height="18" fill="#4063d8" rx="2"/>
<text x="464.72408913030375" y="87" font-family="sans-serif" font-size="11" fill="#333333">6.3287300000000005e-6</text>
<text x="258" y="111" text-anchor="end" font-family="sans-serif" font-size="12" fill="#333333">small / Julia (pre)</text>
<rect x="270" y="99.0" width="50.37121225142277" height="18" fill="#8fa8f4" rx="2"/>
<text x="328.3712122514228" y="111" font-family="sans-serif" font-size="11" fill="#333333">9.6926e-7</text>
<text x="258" y="135" text-anchor="end" font-family="sans-serif" font-size="12" fill="#333333">small / Python</text>
<rect x="270" y="123.0" width="179.3049745744081" height="18" fill="#389826" rx="2"/>
<text x="457.3049745744081" y="135" font-family="sans-serif" font-size="11" fill="#333333">5.714499857276678e-06</text>
<text x="258" y="159" text-anchor="end" font-family="sans-serif" font-size="12" fill="#333333">small / R</text>
<rect x="270" y="147.0" width="371.083334199774" height="18" fill="#9558b2" rx="2"/>
<text x="649.0833341997741" y="159" font-family="sans-serif" font-size="11" fill="#333333">8.00000000000001e-05</text>
<text x="258" y="183" text-anchor="end" font-family="sans-serif" font-size="12" fill="#333333">default / Julia (safe)</text>
<rect x="270" y="171.0" width="347.6527127412605" height="18" fill="#4063d8" rx="2"/>
<text x="625.6527127412605" y="183" font-family="sans-serif" font-size="11" fill="#333333">5.79513e-5</text>
<text x="258" y="207" text-anchor="end" font-family="sans-serif" font-size="12" fill="#333333">default / Julia (pre)</text>
<rect x="270" y="195.0" width="181.20028502854942" height="18" fill="#8fa8f4" rx="2"/>
<text x="459.2002850285494" y="207" font-family="sans-serif" font-size="11" fill="#333333">5.8655e-6</text>
<text x="258" y="231" text-anchor="end" font-family="sans-serif" font-size="12" fill="#333333">default / Python</text>
<rect x="270" y="219.0" width="296.9450077140625" height="18" fill="#389826" rx="2"/>
<text x="574.9450077140625" y="231" font-family="sans-serif" font-size="11" fill="#333333">2.8841791208833457e-05</text>
<text x="258" y="255" text-anchor="end" font-family="sans-serif" font-size="12" fill="#333333">default / R</text>
<rect x="270" y="243.0" width="488.04166709988704" height="18" fill="#9558b2" rx="2"/>
<text x="766.041667099887" y="255" font-family="sans-serif" font-size="11" fill="#333333">4e-04</text>
<text x="258" y="279" text-anchor="end" font-family="sans-serif" font-size="12" fill="#333333">many_sites / Julia (safe)</text>
<rect x="270" y="267.0" width="422.6773251534742" height="18" fill="#4063d8" rx="2"/>
<text x="700.6773251534742" y="279" font-family="sans-serif" font-size="11" fill="#333333">0.000162715</text>
<text x="258" y="303" text-anchor="end" font-family="sans-serif" font-size="12" fill="#333333">many_sites / Julia (pre)</text>
<rect x="270" y="291.0" width="255.19801111292668" height="18" fill="#8fa8f4" rx="2"/>
<text x="533.1980111129267" y="303" font-family="sans-serif" font-size="11" fill="#333333">1.6238e-5</text>
<text x="258" y="327" text-anchor="end" font-family="sans-serif" font-size="12" fill="#333333">many_sites / Python</text>
<rect x="270" y="315.0" width="360.1954820559445" height="18" fill="#389826" rx="2"/>
<text x="638.1954820559445" y="327" font-family="sans-serif" font-size="11" fill="#333333">6.88686656455199e-05</text>
<text x="258" y="351" text-anchor="end" font-family="sans-serif" font-size="12" fill="#333333">many_sites / R</text>
<rect x="270" y="339.0" width="554.6287877485772" height="18" fill="#9558b2" rx="2"/>
<text x="832.6287877485772" y="351" font-family="sans-serif" font-size="11" fill="#333333">0.001</text>
<text x="258" y="375" text-anchor="end" font-family="sans-serif" font-size="12" fill="#333333">wide / Julia (safe)</text>
<rect x="270" y="363.0" width="450.02482337205424" height="18" fill="#4063d8" rx="2"/>
<text x="728.0248233720542" y="375" font-family="sans-serif" font-size="11" fill="#333333">0.0002370623333333333</text>
<text x="258" y="399" text-anchor="end" font-family="sans-serif" font-size="12" fill="#333333">wide / Julia (pre)</text>
<rect x="270" y="387.0" width="291.76730129978426" height="18" fill="#8fa8f4" rx="2"/>
<text x="569.7673012997843" y="399" font-family="sans-serif" font-size="11" fill="#333333">2.685833333333333e-5</text>
<text x="258" y="423" text-anchor="end" font-family="sans-serif" font-size="12" fill="#333333">wide / Python</text>
<rect x="270" y="411.0" width="379.93303012099034" height="18" fill="#389826" rx="2"/>
<text x="657.9330301209903" y="423" font-family="sans-serif" font-size="11" fill="#333333">9.036033103863399e-05</text>
<text x="258" y="447" text-anchor="end" font-family="sans-serif" font-size="12" fill="#333333">wide / R</text>
<rect x="270" y="435.0" width="575.5347297170515" height="18" fill="#9558b2" rx="2"/>
<text x="853.5347297170515" y="447" font-family="sans-serif" font-size="11" fill="#333333">0.00133333333333333</text>
<text x="258" y="471" text-anchor="end" font-family="sans-serif" font-size="12" fill="#333333">large / Julia (safe)</text>
<rect x="270" y="459.0" width="459.6023109727265" height="18" fill="#4063d8" rx="2"/>
<text x="737.6023109727265" y="471" font-family="sans-serif" font-size="11" fill="#333333">0.000270458</text>
<text x="258" y="495" text-anchor="end" font-family="sans-serif" font-size="12" fill="#333333">large / Julia (pre)</text>
<rect x="270" y="483.0" width="398.7857291383315" height="18" fill="#8fa8f4" rx="2"/>
<text x="676.7857291383315" y="495" font-family="sans-serif" font-size="11" fill="#333333">0.000117124</text>
<text x="258" y="519" text-anchor="end" font-family="sans-serif" font-size="12" fill="#333333">large / Python</text>
<rect x="270" y="507.0" width="403.49309604601285" height="18" fill="#389826" rx="2"/>
<text x="681.4930960460129" y="519" font-family="sans-serif" font-size="11" fill="#333333">0.00012496206909418106</text>
<text x="258" y="543" text-anchor="end" font-family="sans-serif" font-size="12" fill="#333333">large / R</text>
<rect x="270" y="531.0" width="605.0" height="18" fill="#9558b2" rx="2"/>
<text x="883.0" y="543" font-family="sans-serif" font-size="11" fill="#333333">0.002</text>
<rect x="900" y="72" width="12" height="12" fill="#4063d8" rx="2"/>
<text x="918" y="83" font-family="sans-serif" font-size="12" fill="#333333">Julia (safe)</text>
<rect x="900" y="94" width="12" height="12" fill="#8fa8f4" rx="2"/>
<text x="918" y="105" font-family="sans-serif" font-size="12" fill="#333333">Julia (pre)</text>
<rect x="900" y="116" width="12" height="12" fill="#389826" rx="2"/>
<text x="918" y="127" font-family="sans-serif" font-size="12" fill="#333333">Python</text>
<rect x="900" y="138" width="12" height="12" fill="#9558b2" rx="2"/>
<text x="918" y="149" font-family="sans-serif" font-size="12" fill="#333333">R</text>
<line x1="270" y1="574" x2="875" y2="574" stroke="#bbbbbb" stroke-width="1"/>
</svg>
